<?xml version="1.0" encoding="UTF-8"?>
<!-- Generator: Adobe Illustrator 13.0.0, SVG Export Plug-In  -->
<!DOCTYPE svg PUBLIC "-//W3C//DTD SVG 1.1//EN" "http://www.w3.org/Graphics/SVG/1.1/DTD/svg11.dtd" [
	<!ENTITY ns_flows "http://ns.adobe.com/Flows/1.0/">
]>
<svg version="1.1" xmlns="http://www.w3.org/2000/svg" xmlns:xlink="http://www.w3.org/1999/xlink" xmlns:a="http://ns.adobe.com/AdobeSVGViewerExtensions/3.0/" x="0px" y="0px" width="128px" height="128px" viewBox="-6.092 -8.636 128 128" enable-background="new -6.092 -8.636 128 128" xml:space="preserve">
<defs>
</defs>
<path opacity="0.5" enable-background="new    " d="M90.485,111.729c-1.381,0-2.7-0.429-3.821-1.242L58.408,89.957l-28.259,20.529  c-1.115,0.813-2.437,1.242-3.82,1.242c-1.379,0-2.701-0.431-3.822-1.242c-2.285-1.659-3.234-4.58-2.362-7.271L30.938,70L2.682,49.47  c-2.285-1.664-3.234-4.584-2.362-7.269c0.876-2.687,3.36-4.491,6.184-4.491h34.925L52.224,4.491C53.1,1.805,55.584,0,58.408,0  c2.823,0,5.309,1.805,6.184,4.491l10.795,33.218h34.927c2.823,0,5.311,1.804,6.183,4.491s-0.077,5.608-2.362,7.269L85.875,70.001  l10.791,33.218c0.874,2.686-0.075,5.606-2.364,7.268C93.19,111.299,91.87,111.729,90.485,111.729L90.485,111.729z"/>
<linearGradient id="SVGID_1_" gradientUnits="userSpaceOnUse" x1="-606.5161" y1="-581.0166" x2="-492.707" y2="-581.0166" gradientTransform="matrix(1, 0, 0, -1, 607.019, -526.152)">
	<stop offset="0" style="stop-color:#3D3D3D"/>
	<stop offset="1" style="stop-color:#252525"/>
</linearGradient>
<path fill="url(#SVGID_1_)" d="M89.483,109.228c-1.028,0-2.062-0.318-2.938-0.955l-29.139-21.17l-29.14,21.17  c-0.875,0.639-1.908,0.957-2.938,0.957c-1.03,0-2.062-0.318-2.938-0.957c-1.752-1.271-2.486-3.529-1.817-5.59l11.13-34.259  L2.564,47.253c-1.752-1.273-2.486-3.532-1.816-5.591c0.67-2.062,2.588-3.455,4.755-3.455h36.017L52.651,3.954  c0.669-2.062,2.591-3.455,4.756-3.455c2.168,0,4.086,1.396,4.756,3.455l11.13,34.254h36.018c2.168,0,4.086,1.394,4.756,3.455  c0.67,2.059-0.063,4.317-1.815,5.591l-29.14,21.17l11.13,34.259c0.67,2.061-0.064,4.315-1.817,5.59  C91.547,108.908,90.516,109.228,89.483,109.228L89.483,109.228z"/>
<linearGradient id="SVGID_2_" gradientUnits="userSpaceOnUse" x1="-549.6123" y1="-529.1514" x2="-549.6124" y2="-632.8779" gradientTransform="matrix(1, 0, 0, -1, 607.019, -526.152)">
	<stop offset="0.2802" style="stop-color:#FAFAFA"/>
	<stop offset="1" style="stop-color:#B6B6B6"/>
</linearGradient>
<path fill="url(#SVGID_2_)" d="M89.483,106.726c-0.516,0-1.028-0.16-1.467-0.478l-30.614-22.24l-30.606,22.236  c-0.437,0.319-0.953,0.479-1.469,0.479c-0.516,0-1.029-0.16-1.468-0.479c-0.878-0.636-1.245-1.765-0.91-2.793l11.693-35.984  L4.035,45.228c-0.878-0.636-1.245-1.765-0.909-2.794s1.294-1.728,2.378-1.728h37.835l11.69-35.981  c0.335-1.028,1.295-1.726,2.378-1.726c1.082,0,2.043,0.698,2.379,1.727l11.691,35.981h37.834c1.084,0,2.043,0.698,2.379,1.728  c0.334,1.029-0.03,2.158-0.91,2.794L80.17,67.467l11.691,35.984c0.337,1.028-0.03,2.157-0.908,2.793  C90.514,106.563,90,106.726,89.483,106.726L89.483,106.726z"/>
<linearGradient id="SVGID_3_" gradientUnits="userSpaceOnUse" x1="-347.2729" y1="740.9229" x2="-347.2729" y2="833.7988" gradientTransform="matrix(1, 0, 0, 1, 404.68, -732.192)">
	<stop offset="0.1703" style="stop-color:#FFFFFF"/>
	<stop offset="0.61" style="stop-color:#C1C1C1"/>
	<stop offset="1" style="stop-color:#FFFFFF"/>
</linearGradient>
<polygon fill="url(#SVGID_3_)" points="27.229,101.606 38.529,66.824 38.755,66.133 38.167,65.705 8.583,44.207 45.153,44.207 45.88,44.207 46.104,43.516 57.407,8.731 68.709,43.516 68.932,44.207 69.66,44.207 106.231,44.207 76.643,65.705 76.055,66.133 76.28,66.824 87.585,101.604 57.995,80.108 57.407,79.685 56.817,80.108"/>
<linearGradient id="SVGID_4_" gradientUnits="userSpaceOnUse" x1="-347.2739" y1="737.6904" x2="-347.2739" y2="836.418" gradientTransform="matrix(1, 0, 0, 1, 404.68, -732.192)">
	<stop offset="0.1703" style="stop-color:#FFFFFF"/>
	<stop offset="0.61" style="stop-color:#B0B0B0"/>
	<stop offset="1" style="stop-color:#FFFFFF"/>
</linearGradient>
<path fill="url(#SVGID_4_)" d="M57.407,5.498l12.254,37.71h39.648L77.231,66.517l12.254,37.709L57.407,80.918l-32.078,23.308  l12.253-37.709L5.502,43.207h39.65L57.407,5.498 M57.407,11.97l-10.35,31.856l-0.449,1.382h-1.453H11.659l27.099,19.689l1.175,0.854  l-0.449,1.381L29.131,98.988l27.098-19.689l1.176-0.854l1.176,0.854L85.68,98.988l-10.35-31.855l-0.449-1.383l1.178-0.854  l27.098-19.688H69.661h-1.453l-0.449-1.382L57.407,11.97L57.407,11.97z"/>
</svg>